<?xml version="1.0" encoding="UTF-8"?>
<svg xmlns="http://www.w3.org/2000/svg" xmlns:xlink="http://www.w3.org/1999/xlink" width="42px" height="42px" viewBox="0 0 42 42" version="1.1">
<defs>
<filter id="alpha" filterUnits="objectBoundingBox" x="0%" y="0%" width="100%" height="100%">
  <feColorMatrix type="matrix" in="SourceGraphic" values="0 0 0 0 1 0 0 0 0 1 0 0 0 0 1 0 0 0 1 0"/>
</filter>
<mask id="mask0">
  <g filter="url(#alpha)">
<rect x="0" y="0" width="42" height="42" style="fill:rgb(0%,0%,0%);fill-opacity:0.976471;stroke:none;"/>
  </g>
</mask>
<clipPath id="clip1">
  <rect x="0" y="0" width="42" height="42"/>
</clipPath>
<g id="surface5" clip-path="url(#clip1)">
<path style=" stroke:none;fill-rule:evenodd;fill:rgb(0.784314%,0.784314%,0.784314%);fill-opacity:1;" d="M 15.054688 -0.0390625 C 15.898438 -0.0390625 16.75 -0.0390625 17.59375 -0.0390625 C 18.660156 0.300781 19.359375 1.011719 19.6875 2.09375 C 19.726562 4.03125 19.742188 5.972656 19.726562 7.914062 C 21.5625 7.902344 23.394531 7.914062 25.226562 7.957031 C 25.542969 8.042969 25.734375 8.25 25.796875 8.570312 C 25.75 8.855469 25.585938 9.0625 25.304688 9.1875 C 20.714844 9.226562 16.121094 9.242188 11.523438 9.226562 C 10.347656 9.214844 9.171875 9.226562 8 9.269531 C 6.144531 9.957031 5.5 11.257812 6.070312 13.164062 C 6.480469 14.019531 7.148438 14.554688 8.078125 14.765625 C 16.652344 14.832031 25.210938 14.820312 33.757812 14.726562 C 34.902344 14.523438 35.652344 13.867188 36.011719 12.757812 C 36.289062 11 35.59375 9.835938 33.921875 9.269531 C 31.867188 9.242188 29.820312 9.214844 27.765625 9.1875 C 27.539062 9.042969 27.402344 8.839844 27.359375 8.570312 C 27.363281 8.199219 27.554688 7.992188 27.929688 7.957031 C 29.792969 7.902344 31.648438 7.902344 33.507812 7.957031 C 35.410156 8.132812 36.652344 9.132812 37.242188 10.953125 C 37.667969 13.398438 36.722656 15.050781 34.414062 15.914062 C 34.359375 15.976562 34.320312 16.042969 34.289062 16.117188 C 33.488281 22.597656 32.695312 29.078125 31.910156 35.5625 C 31.640625 38.1875 30.34375 40.117188 28.015625 41.34375 C 27.390625 41.59375 26.761719 41.796875 26.125 41.960938 C 22.871094 41.960938 19.621094 41.960938 16.367188 41.960938 C 13.363281 41.324219 11.464844 39.519531 10.664062 36.546875 C 10.238281 33.632812 9.816406 30.71875 9.390625 27.808594 C 9.449219 27.496094 9.613281 27.261719 9.882812 27.109375 C 10.230469 27.140625 10.492188 27.304688 10.664062 27.601562 C 11.03125 30.339844 11.414062 33.074219 11.8125 35.804688 C 12.277344 38.320312 13.738281 39.921875 16.203125 40.605469 C 18.386719 40.722656 20.574219 40.765625 22.765625 40.726562 C 23.722656 40.742188 24.679688 40.726562 25.632812 40.6875 C 28.15625 40.269531 29.785156 38.835938 30.515625 36.382812 C 31.183594 31.246094 31.800781 26.105469 32.359375 20.960938 C 30.183594 20.941406 28.378906 21.746094 26.945312 23.378906 C 26.734375 23.480469 26.515625 23.507812 26.289062 23.460938 C 24.828125 21.828125 22.996094 20.992188 20.796875 20.960938 C 18.71875 21.011719 16.996094 21.820312 15.625 23.378906 C 15.382812 23.542969 15.132812 23.542969 14.890625 23.378906 C 13.523438 21.820312 11.800781 21.015625 9.71875 20.960938 C 9.921875 22.253906 10.113281 23.554688 10.296875 24.855469 C 10.273438 25.246094 10.082031 25.503906 9.71875 25.632812 C 9.386719 25.617188 9.15625 25.453125 9.023438 25.140625 C 8.574219 22.082031 8.148438 19.019531 7.75 15.953125 C 5.722656 15.429688 4.65625 14.117188 4.554688 12.015625 C 4.664062 9.921875 5.730469 8.597656 7.75 8.039062 C 9.472656 7.925781 11.195312 7.882812 12.921875 7.914062 C 12.90625 5.972656 12.921875 4.03125 12.960938 2.09375 C 13.289062 1.011719 13.988281 0.300781 15.054688 -0.0390625 Z M 15.054688 -0.0390625 "/>
</g>
</defs>
<g id="surface1">
<use xlink:href="#surface5" mask="url(#mask0)"/>
<path style=" stroke:none;fill-rule:evenodd;fill:rgb(99.215686%,45.490196%,55.294118%);fill-opacity:1;" d="M 18.5 6.523438 C 17.046875 6.523438 15.601562 6.523438 14.148438 6.523438 C 14.136719 5.125 14.148438 3.730469 14.191406 2.335938 C 14.605469 1.417969 15.316406 1.035156 16.324219 1.1875 C 17.332031 1.035156 18.042969 1.417969 18.457031 2.335938 C 18.5 3.730469 18.511719 5.125 18.5 6.523438 Z M 18.5 6.523438 "/>
<path style=" stroke:none;fill-rule:evenodd;fill:rgb(96.470588%,32.156863%,43.137255%);fill-opacity:1;" d="M 14.148438 6.523438 C 15.601562 6.523438 17.046875 6.523438 18.5 6.523438 C 18.5 7.015625 18.5 7.507812 18.5 8 C 17.046875 8 15.601562 8 14.148438 8 C 14.148438 7.507812 14.148438 7.015625 14.148438 6.523438 Z M 14.148438 6.523438 "/>
<path style=" stroke:none;fill-rule:evenodd;fill:rgb(82.352941%,82.352941%,99.607843%);fill-opacity:1;" d="M 25.796875 8.570312 C 26.316406 8.570312 26.839844 8.570312 27.359375 8.570312 C 27.402344 8.839844 27.539062 9.042969 27.765625 9.1875 C 29.820312 9.214844 31.867188 9.242188 33.921875 9.269531 C 35.59375 9.835938 36.289062 11 36.011719 12.757812 C 35.652344 13.867188 34.902344 14.523438 33.757812 14.726562 C 26.316406 14.738281 18.878906 14.726562 11.445312 14.683594 C 10.3125 13.640625 9.945312 12.371094 10.335938 10.867188 C 10.480469 10.554688 10.644531 10.253906 10.828125 9.96875 C 11.078125 9.730469 11.308594 9.484375 11.523438 9.226562 C 16.121094 9.242188 20.714844 9.226562 25.304688 9.1875 C 25.585938 9.0625 25.75 8.855469 25.796875 8.570312 Z M 25.796875 8.570312 "/>
<path style=" stroke:none;fill-rule:evenodd;fill:rgb(72.941176%,72.941176%,93.333333%);fill-opacity:1;" d="M 11.523438 9.226562 C 11.308594 9.484375 11.078125 9.730469 10.828125 9.96875 C 10.644531 10.253906 10.480469 10.554688 10.335938 10.867188 C 9.945312 12.371094 10.3125 13.640625 11.445312 14.683594 C 18.878906 14.726562 26.316406 14.738281 33.757812 14.726562 C 25.210938 14.820312 16.652344 14.832031 8.078125 14.765625 C 7.148438 14.554688 6.480469 14.019531 6.070312 13.164062 C 5.5 11.257812 6.144531 9.957031 8 9.269531 C 9.171875 9.226562 10.347656 9.214844 11.523438 9.226562 Z M 11.523438 9.226562 "/>
<path style=" stroke:none;fill-rule:evenodd;fill:rgb(22.352941%,22.352941%,27.058824%);fill-opacity:1;" d="M 12.921875 16.039062 C 11.632812 16.039062 10.351562 16.039062 9.0625 16.039062 C 9.0625 16.144531 9.0625 16.257812 9.0625 16.367188 C 8.988281 16.25 8.960938 16.113281 8.984375 15.953125 C 10.308594 15.929688 11.621094 15.957031 12.921875 16.039062 Z M 12.921875 16.039062 "/>
<path style=" stroke:none;fill-rule:evenodd;fill:rgb(82.352941%,82.352941%,99.607843%);fill-opacity:1;" d="M 12.921875 16.039062 C 12.945312 17.5 12.917969 18.949219 12.835938 20.382812 C 11.785156 19.972656 10.691406 19.753906 9.554688 19.726562 C 9.40625 18.605469 9.242188 17.484375 9.0625 16.367188 C 9.0625 16.257812 9.0625 16.144531 9.0625 16.039062 C 10.351562 16.039062 11.632812 16.039062 12.921875 16.039062 Z M 12.921875 16.039062 "/>
<path style=" stroke:none;fill-rule:evenodd;fill:rgb(11.764706%,11.764706%,14.117647%);fill-opacity:1;" d="M 12.921875 16.039062 C 13.027344 17.5 13.027344 18.976562 12.921875 20.46875 C 12.871094 20.457031 12.84375 20.429688 12.835938 20.382812 C 12.917969 18.949219 12.945312 17.5 12.921875 16.039062 Z M 12.921875 16.039062 "/>
<path style=" stroke:none;fill-rule:evenodd;fill:rgb(96.862745%,32.156863%,43.137255%);fill-opacity:1;" d="M 14.148438 16.039062 C 15.601562 16.039062 17.046875 16.039062 18.5 16.039062 C 18.5 17.40625 18.5 18.769531 18.5 20.140625 C 17.269531 20.480469 16.1875 21.082031 15.257812 21.945312 C 14.902344 21.671875 14.546875 21.398438 14.191406 21.125 C 14.148438 19.429688 14.136719 17.734375 14.148438 16.039062 Z M 14.148438 16.039062 "/>
<path style=" stroke:none;fill-rule:evenodd;fill:rgb(82.352941%,82.352941%,99.607843%);fill-opacity:1;" d="M 21.53125 16.039062 C 21.304688 17.261719 21.113281 18.492188 20.960938 19.726562 C 20.546875 19.730469 20.136719 19.757812 19.726562 19.8125 C 19.726562 18.554688 19.726562 17.292969 19.726562 16.039062 C 20.328125 16.039062 20.933594 16.039062 21.53125 16.039062 Z M 21.53125 16.039062 "/>
<path style=" stroke:none;fill-rule:evenodd;fill:rgb(92.941176%,92.156863%,99.607843%);fill-opacity:1;" d="M 21.53125 16.039062 C 25.363281 16.039062 29.1875 16.039062 33.015625 16.039062 C 32.855469 17.265625 32.71875 18.496094 32.609375 19.726562 C 30.925781 19.648438 29.367188 20.046875 27.929688 20.917969 C 27.464844 21.261719 27.003906 21.601562 26.539062 21.945312 C 24.953125 20.53125 23.09375 19.792969 20.960938 19.726562 C 21.113281 18.492188 21.304688 17.261719 21.53125 16.039062 Z M 21.53125 16.039062 "/>
<path style=" stroke:none;fill-rule:evenodd;fill:rgb(99.215686%,72.941176%,83.137255%);fill-opacity:1;" d="M 20.796875 20.960938 C 20.617188 22.765625 20.5625 24.570312 20.632812 26.375 C 20.328125 26.246094 20.054688 26.070312 19.8125 25.839844 C 19.109375 25.804688 18.878906 26.121094 19.113281 26.78125 C 19.683594 27.453125 20.410156 27.726562 21.289062 27.601562 C 21.085938 27.683594 20.867188 27.710938 20.632812 27.6875 C 20.660156 32.152344 21.371094 36.5 22.765625 40.726562 C 20.574219 40.765625 18.386719 40.722656 16.203125 40.605469 C 13.738281 39.921875 12.277344 38.320312 11.8125 35.804688 C 11.414062 33.074219 11.03125 30.339844 10.664062 27.601562 C 10.492188 27.304688 10.230469 27.140625 9.882812 27.109375 C 9.851562 26.617188 9.796875 26.125 9.71875 25.632812 C 10.082031 25.503906 10.273438 25.246094 10.296875 24.855469 C 10.113281 23.554688 9.921875 22.253906 9.71875 20.960938 C 11.800781 21.015625 13.523438 21.820312 14.890625 23.378906 C 15.132812 23.542969 15.382812 23.542969 15.625 23.378906 C 16.996094 21.820312 18.71875 21.011719 20.796875 20.960938 Z M 20.796875 20.960938 "/>
<path style=" stroke:none;fill-rule:evenodd;fill:rgb(99.215686%,81.568627%,88.235294%);fill-opacity:1;" d="M 20.796875 20.960938 C 22.996094 20.992188 24.828125 21.828125 26.289062 23.460938 C 26.515625 23.507812 26.734375 23.480469 26.945312 23.378906 C 28.378906 21.746094 30.183594 20.941406 32.359375 20.960938 C 31.800781 26.105469 31.183594 31.246094 30.515625 36.382812 C 29.785156 38.835938 28.15625 40.269531 25.632812 40.6875 C 24.679688 40.726562 23.722656 40.742188 22.765625 40.726562 C 21.371094 36.5 20.660156 32.152344 20.632812 27.6875 C 20.867188 27.710938 21.085938 27.683594 21.289062 27.601562 C 21.902344 27.535156 22.410156 27.261719 22.804688 26.78125 C 23.035156 26.257812 22.871094 25.929688 22.3125 25.796875 C 21.980469 25.9375 21.664062 26.117188 21.367188 26.332031 C 21.125 26.371094 20.878906 26.386719 20.632812 26.375 C 20.5625 24.570312 20.617188 22.765625 20.796875 20.960938 Z M 20.796875 20.960938 "/>
<path style=" stroke:none;fill-rule:evenodd;fill:rgb(3.529412%,2.745098%,3.137255%);fill-opacity:1;" d="M 16.203125 26.945312 C 15.664062 27.171875 15.335938 27.007812 15.21875 26.453125 C 15.203125 26.042969 15.21875 25.632812 15.257812 25.226562 C 15.625 24.683594 16.007812 24.683594 16.40625 25.226562 C 16.460938 25.691406 16.460938 26.152344 16.40625 26.617188 C 16.351562 26.742188 16.285156 26.851562 16.203125 26.945312 Z M 16.203125 26.945312 "/>
<path style=" stroke:none;fill-rule:evenodd;fill:rgb(3.921569%,3.137255%,3.529412%);fill-opacity:1;" d="M 26.703125 26.453125 C 26.613281 26.949219 26.3125 27.140625 25.796875 27.03125 C 25.515625 26.722656 25.40625 26.351562 25.46875 25.921875 C 25.378906 25.472656 25.515625 25.117188 25.882812 24.855469 C 26.15625 24.777344 26.386719 24.847656 26.578125 25.0625 C 26.691406 25.515625 26.734375 25.980469 26.703125 26.453125 Z M 26.703125 26.453125 "/>
<path style=" stroke:none;fill-rule:evenodd;fill:rgb(2.352941%,1.960784%,1.960784%);fill-opacity:1;" d="M 20.632812 26.375 C 20.878906 26.386719 21.125 26.371094 21.367188 26.332031 C 21.664062 26.117188 21.980469 25.9375 22.3125 25.796875 C 22.871094 25.929688 23.035156 26.257812 22.804688 26.78125 C 22.410156 27.261719 21.902344 27.535156 21.289062 27.601562 C 20.410156 27.726562 19.683594 27.453125 19.113281 26.78125 C 18.878906 26.121094 19.109375 25.804688 19.8125 25.839844 C 20.054688 26.070312 20.328125 26.246094 20.632812 26.375 Z M 20.632812 26.375 "/>
<path style=" stroke:none;fill-rule:evenodd;fill:rgb(99.607843%,99.215686%,99.607843%);fill-opacity:1;" d="M 15.21875 26.453125 C 15.335938 27.007812 15.664062 27.171875 16.203125 26.945312 C 17.121094 27.976562 17.039062 28.917969 15.953125 29.777344 C 14.449219 30.589844 13.179688 30.332031 12.140625 29 C 11.882812 28.273438 12.003906 27.632812 12.507812 27.070312 C 13.304688 26.414062 14.207031 26.207031 15.21875 26.453125 Z M 15.21875 26.453125 "/>
<path style=" stroke:none;fill-rule:evenodd;fill:rgb(99.607843%,99.607843%,99.607843%);fill-opacity:1;" d="M 25.796875 27.03125 C 26.3125 27.140625 26.613281 26.949219 26.703125 26.453125 C 27.90625 26.1875 28.90625 26.515625 29.695312 27.4375 C 30.140625 28.648438 29.769531 29.507812 28.585938 30.023438 C 27.554688 30.398438 26.597656 30.261719 25.71875 29.613281 C 25.054688 28.972656 24.933594 28.246094 25.347656 27.4375 C 25.4375 27.226562 25.585938 27.089844 25.796875 27.03125 Z M 25.796875 27.03125 "/>
<path style=" stroke:none;fill-rule:evenodd;fill:rgb(1.568627%,1.176471%,1.568627%);fill-opacity:1;" d="M 16.859375 32.6875 C 17.90625 32.589844 18.628906 33.027344 19.03125 34 C 19.207031 35.628906 18.484375 36.410156 16.859375 36.339844 C 15.792969 36.007812 15.316406 35.28125 15.421875 34.164062 C 15.640625 33.414062 16.121094 32.921875 16.859375 32.6875 Z M 16.859375 32.6875 "/>
<path style=" stroke:none;fill-rule:evenodd;fill:rgb(21.960784%,33.72549%,57.647059%);fill-opacity:1;" d="M 17.023438 33.921875 C 17.808594 33.957031 18.027344 34.324219 17.679688 35.027344 C 16.976562 35.308594 16.636719 35.078125 16.652344 34.328125 C 16.738281 34.152344 16.859375 34.015625 17.023438 33.921875 Z M 17.023438 33.921875 "/>
<path style=" stroke:none;fill-rule:evenodd;fill:rgb(1.960784%,1.568627%,1.960784%);fill-opacity:1;" d="M 24.242188 33.921875 C 25.769531 33.878906 26.523438 34.617188 26.496094 36.132812 C 26.0625 37.398438 25.203125 37.847656 23.914062 37.488281 C 22.832031 36.8125 22.570312 35.898438 23.132812 34.742188 C 23.445312 34.375 23.8125 34.101562 24.242188 33.921875 Z M 24.242188 33.921875 "/>
<path style=" stroke:none;fill-rule:evenodd;fill:rgb(33.333333%,42.745098%,61.568627%);fill-opacity:1;" d="M 24.484375 35.148438 C 25.046875 35.148438 25.304688 35.421875 25.265625 35.96875 C 25.082031 36.328125 24.796875 36.453125 24.40625 36.339844 C 24.101562 36.132812 24.003906 35.847656 24.117188 35.476562 C 24.230469 35.351562 24.355469 35.242188 24.484375 35.148438 Z M 24.484375 35.148438 "/>
</g>
</svg>
